<?xml version="1.0" encoding="UTF-8"?>
<svg width="375px" height="444px" viewBox="0 0 375 444" version="1.1" xmlns="http://www.w3.org/2000/svg" xmlns:xlink="http://www.w3.org/1999/xlink">
    <!-- Generator: Sketch 63.1 (92452) - https://sketch.com -->
    <title>Page 1</title>
    <desc>Created with Sketch.</desc>
    <defs>
        <linearGradient x1="50%" y1="0%" x2="50%" y2="12.1440567%" id="linearGradient-1">
            <stop stop-color="#252D4A" stop-opacity="0.1" offset="0%"></stop>
            <stop stop-color="#252D4A" stop-opacity="0.803385417" offset="44.5438148%"></stop>
            <stop stop-color="#252D4A" offset="100%"></stop>
        </linearGradient>
        <rect id="path-2" x="0" y="0" width="276" height="241" rx="10"></rect>
        <filter x="-6.0%" y="-5.6%" width="112.0%" height="113.7%" filterUnits="objectBoundingBox" id="filter-4">
            <feOffset dx="0" dy="3" in="SourceAlpha" result="shadowOffsetOuter1"></feOffset>
            <feGaussianBlur stdDeviation="5" in="shadowOffsetOuter1" result="shadowBlurOuter1"></feGaussianBlur>
            <feColorMatrix values="0 0 0 0 0.0987985832   0 0 0 0 0.128208977   0 0 0 0 0.226243622  0 0 0 0.695991848 0" type="matrix" in="shadowBlurOuter1"></feColorMatrix>
        </filter>
        <rect id="path-5" x="0" y="0" width="295" height="256" rx="10"></rect>
        <filter x="-5.6%" y="-5.3%" width="111.2%" height="112.9%" filterUnits="objectBoundingBox" id="filter-7">
            <feOffset dx="0" dy="3" in="SourceAlpha" result="shadowOffsetOuter1"></feOffset>
            <feGaussianBlur stdDeviation="5" in="shadowOffsetOuter1" result="shadowBlurOuter1"></feGaussianBlur>
            <feColorMatrix values="0 0 0 0 0.0987985832   0 0 0 0 0.128208977   0 0 0 0 0.226243622  0 0 0 0.695991848 0" type="matrix" in="shadowBlurOuter1"></feColorMatrix>
        </filter>
        <rect id="path-8" x="0" y="0" width="276" height="241" rx="10"></rect>
        <filter x="-6.0%" y="-5.6%" width="112.0%" height="113.7%" filterUnits="objectBoundingBox" id="filter-10">
            <feOffset dx="0" dy="3" in="SourceAlpha" result="shadowOffsetOuter1"></feOffset>
            <feGaussianBlur stdDeviation="5" in="shadowOffsetOuter1" result="shadowBlurOuter1"></feGaussianBlur>
            <feColorMatrix values="0 0 0 0 0.0987985832   0 0 0 0 0.128208977   0 0 0 0 0.226243622  0 0 0 0.695991848 0" type="matrix" in="shadowBlurOuter1"></feColorMatrix>
        </filter>
    </defs>
    <g id="Page-1" stroke="none" stroke-width="1" fill="none" fill-rule="evenodd">
        <g id="Product-Info-Full">
            <rect fill="#252D4A" x="0" y="0" width="375" height="444"></rect>
            <g id="text" transform="translate(24.000000, 400.000000)">
                <g id="UI-/-Dividers-/-Divider-327px" transform="translate(0.000000, 42.969286)" fill="#ADB3BF" opacity="0.4">
                    <rect id="Rectangle-Copy-4" x="0" y="0" width="327" height="1"></rect>
                </g>
                <text id="3.7" font-family="SFProText-Regular, SF Pro Text" font-size="14" font-weight="normal" line-spacing="18" fill="#ADB3BF">
                    <tspan x="292" y="31.98">3.7</tspan>
                </text>
                <g id="Icons/Stars/Outline/12/Purple-100" transform="translate(275.000000, 22.000000)" fill-rule="nonzero" stroke="#9782EF" stroke-linejoin="round" stroke-width="0.75">
                    <polygon id="1" points="6.50012067 0 8.5085117 3.95010833 13 4.58370908 9.74993967 7.65825379 10.5171441 12 6.50012067 9.95022545 2.48285592 12 3.25006033 7.65825379 0 4.58370908 4.4914883 3.95010833"></polygon>
                </g>
                <text id="Flower-|-Indica" font-family="SFProText-Regular, SF Pro Text" font-size="14" font-weight="normal" line-spacing="18">
                    <tspan x="16" y="32" fill="#ADB3BF">Flower | </tspan>
                    <tspan x="72" y="32" fill="#FF9291">Indica</tspan>
                </text>
                <text id="Grape-Ape" font-family="Helvetica" font-size="16" font-weight="normal" line-spacing="16" fill="#FAFAFA">
                    <tspan x="16" y="15">Grape Ape</tspan>
                </text>
            </g>
            <g id="Top">
                <rect id="mask" fill="url(#linearGradient-1)" fill-rule="nonzero" transform="translate(187.500000, 107.000000) scale(1, -1) translate(-187.500000, -107.000000) " x="0" y="0" width="375" height="214"></rect>
                <g id="UI-Bars-/-Status-Bars-/-Black-Base" transform="translate(21.000000, 14.000000)">
                    <g id="Battery" transform="translate(315.000000, 3.000000)">
                        <rect id="Rectangle" stroke="#FFFFFF" opacity="0.35" x="0.5" y="0.833333333" width="21" height="10.3333333" rx="2.66666675"></rect>
                        <path d="M23,4 L23,8 C23.8047311,7.66122348 24.328038,6.87313328 24.328038,6 C24.328038,5.12686672 23.8047311,4.33877652 23,4" id="Combined-Shape" fill="#FFFFFF" fill-rule="nonzero" opacity="0.4"></path>
                        <rect id="Rectangle" fill="#FFFFFF" fill-rule="nonzero" x="2" y="2.33333333" width="18" height="7.33333333" rx="1.33333337"></rect>
                    </g>
                    <path d="M302.330333,5.608 C304.546226,5.60809708 306.677386,6.45953466 308.283333,7.98633333 C308.404265,8.10420792 308.597562,8.10272102 308.716667,7.983 L309.872667,6.81633333 C309.932975,6.75561117 309.966599,6.67335948 309.966104,6.58777915 C309.965598,6.50219882 309.931014,6.42034601 309.87,6.36033333 C305.654902,2.32078583 299.005098,2.32078583 294.79,6.36033333 C294.728941,6.42030147 294.694297,6.50212943 294.693727,6.58770988 C294.693171,6.67329033 294.726736,6.75556701 294.787,6.81633333 L295.943333,7.983 C296.062362,8.10290168 296.255808,8.10438973 296.376667,7.98633333 C297.982819,6.45943444 300.114223,5.60799441 302.330333,5.608 L302.330333,5.608 Z M302.330333,9.40366667 C303.547823,9.40359207 304.721865,9.85612452 305.624333,10.6733333 C305.746397,10.7893139 305.938678,10.7867994 306.057667,10.6676667 L307.212333,9.501 C307.273141,9.43980502 307.30688,9.3567887 307.30602,9.27052393 C307.305126,9.18425917 307.269706,9.101946 307.207667,9.042 C304.459468,6.48561767 300.203532,6.48561767 297.455333,9.042 C297.393256,9.10194527 297.357837,9.18429968 297.357008,9.27059232 C297.356208,9.35688496 297.390065,9.43989339 297.451,9.501 L298.605333,10.6676667 C298.724322,10.7867994 298.916603,10.7893139 299.038667,10.6733333 C299.940539,9.8566645 301.113649,9.40417078 302.330333,9.40366667 L302.330333,9.40366667 Z M304.549333,12.188 C304.611087,12.127394 304.645095,12.0439919 304.643328,11.957485 C304.641561,11.8709782 304.604176,11.7890342 304.54,11.731 C303.264428,10.6521162 301.396238,10.6521162 300.120667,11.731 C300.056446,11.7889875 300.019,11.8709057 300.01717,11.957413 C300.01534,12.0439203 300.049289,12.1273487 300.111,12.188 L302.108667,14.2036667 C302.167217,14.2629057 302.247042,14.2962443 302.330333,14.2962443 C302.413624,14.2962443 302.49345,14.2629057 302.552,14.2036667 L304.549333,12.188 Z" id="Wifi" fill="#FFFFFF" fill-rule="nonzero"></path>
                    <path d="M273.666667,10.3333333 L274.666667,10.3333333 C275.218951,10.3333333 275.666667,10.7810486 275.666667,11.3333333 L275.666667,13.3333333 C275.666667,13.8856181 275.218951,14.3333333 274.666667,14.3333333 L273.666667,14.3333333 C273.114382,14.3333333 272.666667,13.8856181 272.666667,13.3333333 L272.666667,11.3333333 C272.666667,10.7810486 273.114382,10.3333333 273.666667,10.3333333 L273.666667,10.3333333 Z M278.333333,8.33333333 L279.333333,8.33333333 C279.885618,8.33333333 280.333333,8.78104858 280.333333,9.33333333 L280.333333,13.3333333 C280.333333,13.8856181 279.885618,14.3333333 279.333333,14.3333333 L278.333333,14.3333333 C277.781049,14.3333333 277.333333,13.8856181 277.333333,13.3333333 L277.333333,9.33333333 C277.333333,8.78104858 277.781049,8.33333333 278.333333,8.33333333 Z M283,6 L284,6 C284.552285,6 285,6.44771525 285,7 L285,13.3333333 C285,13.8856181 284.552285,14.3333333 284,14.3333333 L283,14.3333333 C282.447715,14.3333333 282,13.8856181 282,13.3333333 L282,7 C282,6.44771525 282.447715,6 283,6 Z M287.666667,3.66666667 L288.666667,3.66666667 C289.218951,3.66666667 289.666667,4.11438192 289.666667,4.66666667 L289.666667,13.3333333 C289.666667,13.8856181 289.218951,14.3333333 288.666667,14.3333333 L287.666667,14.3333333 C287.114382,14.3333333 286.666667,13.8856181 286.666667,13.3333333 L286.666667,4.66666667 C286.666667,4.11438192 287.114382,3.66666667 287.666667,3.66666667 L287.666667,3.66666667 Z" id="Mobile-Signal" fill="#FFFFFF" fill-rule="nonzero"></path>
                    <g id="Time-Style" fill="#FFFFFF" font-family="Helvetica" font-size="15" font-weight="normal" letter-spacing="-0.3">
                        <text id="4:20">
                            <tspan x="13.002832" y="15.0064332">4:20</tspan>
                        </text>
                    </g>
                </g>
                <text id="1.2mi" font-family="SFProText-Regular, SF Pro Text" font-size="14" font-weight="normal" line-spacing="20" fill="#56A6FA">
                    <tspan x="300.847656" y="110">1.2mi</tspan>
                </text>
                <text id="Local-Product" font-family="Helvetica" font-size="16" font-weight="normal" line-spacing="20" fill="#FAFAFA">
                    <tspan x="40" y="111">Local Product</tspan>
                </text>
                <g id="UI-Bars-/-Status-Bars-/-Black-Base" transform="translate(21.000000, 14.000000)">
                    <g id="Battery" transform="translate(315.000000, 3.000000)">
                        <rect id="Rectangle" stroke="#FFFFFF" opacity="0.35" x="0.5" y="0.833333333" width="21" height="10.3333333" rx="2.66666675"></rect>
                        <path d="M23,4 L23,8 C23.8047311,7.66122348 24.328038,6.87313328 24.328038,6 C24.328038,5.12686672 23.8047311,4.33877652 23,4" id="Combined-Shape" fill="#FFFFFF" fill-rule="nonzero" opacity="0.4"></path>
                        <rect id="Rectangle" fill="#FFFFFF" fill-rule="nonzero" x="2" y="2.33333333" width="18" height="7.33333333" rx="1.33333337"></rect>
                    </g>
                    <path d="M302.330333,5.608 C304.546226,5.60809708 306.677386,6.45953466 308.283333,7.98633333 C308.404265,8.10420792 308.597562,8.10272102 308.716667,7.983 L309.872667,6.81633333 C309.932975,6.75561117 309.966599,6.67335948 309.966104,6.58777915 C309.965598,6.50219882 309.931014,6.42034601 309.87,6.36033333 C305.654902,2.32078583 299.005098,2.32078583 294.79,6.36033333 C294.728941,6.42030147 294.694297,6.50212943 294.693727,6.58770988 C294.693171,6.67329033 294.726736,6.75556701 294.787,6.81633333 L295.943333,7.983 C296.062362,8.10290168 296.255808,8.10438973 296.376667,7.98633333 C297.982819,6.45943444 300.114223,5.60799441 302.330333,5.608 L302.330333,5.608 Z M302.330333,9.40366667 C303.547823,9.40359207 304.721865,9.85612452 305.624333,10.6733333 C305.746397,10.7893139 305.938678,10.7867994 306.057667,10.6676667 L307.212333,9.501 C307.273141,9.43980502 307.30688,9.3567887 307.30602,9.27052393 C307.305126,9.18425917 307.269706,9.101946 307.207667,9.042 C304.459468,6.48561767 300.203532,6.48561767 297.455333,9.042 C297.393256,9.10194527 297.357837,9.18429968 297.357008,9.27059232 C297.356208,9.35688496 297.390065,9.43989339 297.451,9.501 L298.605333,10.6676667 C298.724322,10.7867994 298.916603,10.7893139 299.038667,10.6733333 C299.940539,9.8566645 301.113649,9.40417078 302.330333,9.40366667 L302.330333,9.40366667 Z M304.549333,12.188 C304.611087,12.127394 304.645095,12.0439919 304.643328,11.957485 C304.641561,11.8709782 304.604176,11.7890342 304.54,11.731 C303.264428,10.6521162 301.396238,10.6521162 300.120667,11.731 C300.056446,11.7889875 300.019,11.8709057 300.01717,11.957413 C300.01534,12.0439203 300.049289,12.1273487 300.111,12.188 L302.108667,14.2036667 C302.167217,14.2629057 302.247042,14.2962443 302.330333,14.2962443 C302.413624,14.2962443 302.49345,14.2629057 302.552,14.2036667 L304.549333,12.188 Z" id="Wifi" fill="#FFFFFF" fill-rule="nonzero"></path>
                    <path d="M273.666667,10.3333333 L274.666667,10.3333333 C275.218951,10.3333333 275.666667,10.7810486 275.666667,11.3333333 L275.666667,13.3333333 C275.666667,13.8856181 275.218951,14.3333333 274.666667,14.3333333 L273.666667,14.3333333 C273.114382,14.3333333 272.666667,13.8856181 272.666667,13.3333333 L272.666667,11.3333333 C272.666667,10.7810486 273.114382,10.3333333 273.666667,10.3333333 L273.666667,10.3333333 Z M278.333333,8.33333333 L279.333333,8.33333333 C279.885618,8.33333333 280.333333,8.78104858 280.333333,9.33333333 L280.333333,13.3333333 C280.333333,13.8856181 279.885618,14.3333333 279.333333,14.3333333 L278.333333,14.3333333 C277.781049,14.3333333 277.333333,13.8856181 277.333333,13.3333333 L277.333333,9.33333333 C277.333333,8.78104858 277.781049,8.33333333 278.333333,8.33333333 Z M283,6 L284,6 C284.552285,6 285,6.44771525 285,7 L285,13.3333333 C285,13.8856181 284.552285,14.3333333 284,14.3333333 L283,14.3333333 C282.447715,14.3333333 282,13.8856181 282,13.3333333 L282,7 C282,6.44771525 282.447715,6 283,6 Z M287.666667,3.66666667 L288.666667,3.66666667 C289.218951,3.66666667 289.666667,4.11438192 289.666667,4.66666667 L289.666667,13.3333333 C289.666667,13.8856181 289.218951,14.3333333 288.666667,14.3333333 L287.666667,14.3333333 C287.114382,14.3333333 286.666667,13.8856181 286.666667,13.3333333 L286.666667,4.66666667 C286.666667,4.11438192 287.114382,3.66666667 287.666667,3.66666667 L287.666667,3.66666667 Z" id="Mobile-Signal" fill="#FFFFFF" fill-rule="nonzero"></path>
                    <g id="Time-Style" fill="#FFFFFF" font-family="Helvetica" font-size="15" font-weight="normal" letter-spacing="-0.3">
                        <text id="4:20">
                            <tspan x="13.002832" y="15.0064332">4:20</tspan>
                        </text>
                    </g>
                </g>
                <g id="components/Location/Top-adress-combined/Full" transform="translate(24.000000, 48.000000)">
                    <g id="Icons-/-Basket-/-16-/-White-100" transform="translate(311.000000, 8.000000)" fill-rule="nonzero">
                        <rect id="base" x="0" y="0" width="16" height="16"></rect>
                        <path d="M16,7.10130462 C16,6.8505973 15.7947743,6.64547312 15.543943,6.64547312 L14.7268409,6.64547312 L14.7230404,6.64547312 L14.3619952,6.64547312 L9.41377672,1.14890496 C9.31876485,1.04254427 9.18574822,0.993162528 9.05653207,1.00075972 C8.95391924,1.00455831 8.85130641,1.04254427 8.76769596,1.11471759 C8.58147268,1.28185581 8.56627078,1.57054909 8.73349169,1.75668029 L13.1192399,6.64547312 L2.8807601,6.64547312 L7.26650831,1.75668029 C7.43372922,1.57054909 7.41852732,1.28185581 7.23230404,1.11471759 C7.14869359,1.04254427 7.04608076,1.00075972 6.94346793,1.00075972 C6.81045131,0.996961123 6.68123515,1.04634287 6.58622328,1.14890496 L1.63800475,6.64547312 L1.28836105,6.64547312 L1.27695962,6.64547312 L1.27315914,6.64547312 L0.456057007,6.64547312 C0.410451306,6.64547312 0.364845606,6.65307031 0.319239905,6.6644661 C0.133016627,6.72144504 0,6.89618045 0,7.10130462 C0,7.22665828 0.0532066508,7.34061616 0.133016627,7.42418527 C0.133016627,7.42418527 0.136817102,7.42418527 0.136817102,7.42798386 C0.220427553,7.50775437 0.33064133,7.56093472 0.456057007,7.56093472 L0.456057007,7.56093472 L0.900712589,7.56093472 L1.4631829,10.3111181 C1.4783848,10.38709 1.51258907,10.4554647 1.55819477,10.5086451 L2.23847981,13.6842712 C2.44750594,14.7364822 3.37862233,15.5 4.45415677,15.5 L6.56342043,15.5 L9.43657957,15.5 L11.5458432,15.5 C12.6213777,15.5 13.5524941,14.7364822 13.7615202,13.6842712 L14.4418052,10.5048465 C14.4874109,10.4478675 14.5216152,10.3832914 14.5368171,10.3073195 L15.0992874,7.55713612 L15.543943,7.55713612 C15.6693587,7.55713612 15.7833729,7.50395578 15.8669834,7.42418527 C15.9505938,7.34061616 16,7.22665828 16,7.10130462 Z M12.8684086,13.4943414 C12.8684086,13.49814 12.8684086,13.49814 12.8684086,13.5019386 C12.7429929,14.1325055 12.1881235,14.588337 11.5458432,14.588337 L9.43657957,14.588337 L6.56342043,14.588337 L4.45415677,14.588337 C3.81187648,14.588337 3.25700713,14.1325055 3.13159145,13.5019386 C3.13159145,13.49814 3.13159145,13.49814 3.13159145,13.4943414 L1.8584323,7.55713612 L14.1415677,7.55713612 L12.8684086,13.4943414 Z" id="Shape" fill="#FAFAFA"></path>
                    </g>
                    <g id="Icons/Arrows/Back/White-100" transform="translate(-1.000000, 8.000000)" fill="#FAFAFA" fill-rule="nonzero">
                        <path d="M1.1108954,7.98577406 L8.32428452,0.772384937 C8.50169038,0.594979079 8.50169038,0.310460251 8.32428452,0.133054393 C8.14687866,-0.0443514644 7.86235983,-0.0443514644 7.68495397,0.133054393 L0.150225941,7.66778243 C-0.0271799163,7.84518828 -0.0271799163,8.12970711 0.150225941,8.30711297 L7.68495397,15.8384937 C7.77198326,15.925523 7.88913808,15.9723849 8.00294561,15.9723849 C8.11675314,15.9723849 8.23390795,15.9288703 8.32093724,15.8384937 C8.4983431,15.6610879 8.4983431,15.376569 8.32093724,15.1991632 L1.1108954,7.98577406 Z" id="Shape"></path>
                    </g>
                    <g id="components/Location/field-&amp;-text/Purple-txt-black-100-Copy-1" transform="translate(69.000000, 0.000000)">
                        <g id="components/Location/BG/Base-black-100" fill="#1B2136" fill-rule="nonzero">
                            <rect id="base-" x="0" y="0" width="190" height="32" rx="16"></rect>
                        </g>
                        <g id="text" stroke-width="1" fill-rule="evenodd" transform="translate(44.000000, 8.000000)">
                            <text id="604-Brazos-St" font-family="SFProText-Regular, SF Pro Text" font-size="12" font-weight="normal" line-spacing="16" fill="#9782EF">
                                <tspan x="22" y="11">604 Brazos St</tspan>
                            </text>
                            <g id="Icons-/-Location-/-Light-Purple---100" transform="translate(0.000000, 0.000000)">
                                <g id="Location">
                                    <path d="M7.99721497,1.33333333 C5.06179286,1.33333333 2.67223673,3.72288947 2.67223673,6.65831158 C2.67223673,6.99251523 2.70287206,7.32950392 2.76692776,7.65813751 C2.76971279,7.67763272 2.78085292,7.73611836 2.80313316,7.83637946 C2.88389904,8.19564839 3.00365535,8.54934726 3.15961706,8.88633594 C3.73333333,10.2370757 4.99495213,12.3119234 7.76327241,14.5343777 C7.83289817,14.5900783 7.91644909,14.6179286 8,14.6179286 C8.08355091,14.6179286 8.16710183,14.5900783 8.23672759,14.5343777 C11.0022628,12.3119234 12.2666667,10.2370757 12.8403829,8.88633594 C12.9963446,8.54934726 13.116101,8.19843342 13.1968668,7.83637946 C13.2191471,7.73611836 13.2302872,7.67763272 13.2330722,7.65813751 C13.2943429,7.32950392 13.3277633,6.99251523 13.3277633,6.65831158 C13.3221932,3.72288947 10.9326371,1.33333333 7.99721497,1.33333333 Z M12.4866841,7.52724108 C12.4866841,7.53281114 12.483899,7.5383812 12.483899,7.54395126 C12.481114,7.55787641 12.4727589,7.59965187 12.4588338,7.66370757 C12.4588338,7.6664926 12.4588338,7.6664926 12.4588338,7.66927763 C12.389208,7.98120104 12.2861619,8.28476936 12.1496954,8.57719756 C12.1469104,8.57998259 12.1469104,8.58555265 12.1441253,8.58833768 C11.6233246,9.82210618 10.4814621,11.7047868 7.99721497,13.7573542 C5.5129678,11.7047868 4.37110531,9.82210618 3.85030461,8.58833768 C3.84751958,8.58555265 3.84751958,8.57998259 3.84473455,8.57719756 C3.71105309,8.2875544 3.60800696,7.98120104 3.53559617,7.66927763 C3.53559617,7.6664926 3.53559617,7.6664926 3.53559617,7.66370757 C3.51888599,7.59965187 3.51331593,7.55787641 3.5105309,7.54395126 C3.5105309,7.5383812 3.50774587,7.53281114 3.50774587,7.52445605 C3.45204526,7.23759791 3.42419495,6.94795474 3.42419495,6.65552654 C3.42419495,4.13507398 5.4767624,2.08250653 7.99721497,2.08250653 C10.5176675,2.08250653 12.570235,4.13507398 12.570235,6.65552654 C12.570235,6.95073977 12.5423847,7.24316797 12.4866841,7.52724108 Z" id="Shape" fill="#9782EF" fill-rule="nonzero"></path>
                                    <path d="M7.99721497,3.33577023 C6.13402959,3.33577023 4.61618799,4.85361184 4.61618799,6.71679721 C4.61618799,8.57998259 6.13402959,10.0978242 7.99721497,10.0978242 C9.86040035,10.0978242 11.3782419,8.57998259 11.3782419,6.71679721 C11.3782419,4.85361184 9.86040035,3.33577023 7.99721497,3.33577023 Z M7.99721497,9.34586597 C6.5462141,9.34586597 5.36814621,8.16501305 5.36814621,6.71679721 C5.36814621,5.26858138 6.54899913,4.08772846 7.99721497,4.08772846 C9.44543081,4.08772846 10.6262837,5.26858138 10.6262837,6.71679721 C10.6262837,8.16501305 9.44821584,9.34586597 7.99721497,9.34586597 Z" id="Shape" fill="#9782EF" fill-rule="nonzero"></path>
                                    <rect id="base" x="0" y="0" width="16" height="16"></rect>
                                </g>
                            </g>
                        </g>
                    </g>
                </g>
            </g>
            <g id="Images-Copy" transform="translate(-252.000000, 128.000000)">
                <g id="3" transform="translate(603.000000, 0.000000)">
                    <mask id="mask-3" fill="white">
                        <use xlink:href="#path-2"></use>
                    </mask>
                    <g id="Mask">
                        <use fill="black" fill-opacity="1" filter="url(#filter-4)" xlink:href="#path-2"></use>
                        <use fill="#343D5E" fill-rule="evenodd" xlink:href="#path-2"></use>
                    </g>
                </g>
                <g id="2" transform="translate(292.000000, 0.000000)">
                    <mask id="mask-6" fill="white">
                        <use xlink:href="#path-5"></use>
                    </mask>
                    <g id="Mask">
                        <use fill="black" fill-opacity="1" filter="url(#filter-7)" xlink:href="#path-5"></use>
                        <use fill="#343D5E" fill-rule="evenodd" xlink:href="#path-5"></use>
                    </g>
                </g>
                <g id="1">
                    <mask id="mask-9" fill="white">
                        <use xlink:href="#path-8"></use>
                    </mask>
                    <g id="Mask">
                        <use fill="black" fill-opacity="1" filter="url(#filter-10)" xlink:href="#path-8"></use>
                        <use fill="#343D5E" fill-rule="evenodd" xlink:href="#path-8"></use>
                    </g>
                </g>
            </g>
        </g>
    </g>
</svg>