<?xml version="1.0" encoding="UTF-8"?>
<svg width="374px" height="109px" viewBox="0 0 374 109" version="1.1" xmlns="http://www.w3.org/2000/svg" xmlns:xlink="http://www.w3.org/1999/xlink">
    <!-- Generator: Sketch 63.1 (92452) - https://sketch.com -->
    <title>Bottom Menu</title>
    <desc>Created with Sketch.</desc>
    <defs>
        <linearGradient x1="50%" y1="0%" x2="50%" y2="100%" id="linearGradient-1">
            <stop stop-color="#252D4A" stop-opacity="0" offset="0%"></stop>
            <stop stop-color="#252D4A" stop-opacity="0.79916958" offset="64.9070946%"></stop>
            <stop stop-color="#252D4A" offset="100%"></stop>
        </linearGradient>
    </defs>
    <g id="Page-1" stroke="none" stroke-width="1" fill="none" fill-rule="evenodd">
        <g id="Product-Info-Full" transform="translate(-1.000000, -916.000000)">
            <g id="components/Main-Nav/Bottom-Menu" transform="translate(1.000000, 916.000000)">
                <rect id="mask" fill="url(#linearGradient-1)" fill-rule="nonzero" x="0" y="0" width="375" height="31.287037"></rect>
                <rect id="bg" fill="#252D4A" fill-rule="nonzero" x="0" y="31.287037" width="375" height="77.712963"></rect>
                <g id="Icons-/-Nav-/-Wallet-/-White-100" transform="translate(326.000000, 47.435185)">
                    <rect id="base" fill-rule="nonzero" x="0" y="0" width="24" height="24.2222222"></rect>
                    <g id="Group" stroke-width="1" fill-rule="evenodd" transform="translate(3.000000, 4.037037)" fill="#FFFFFF">
                        <path d="M1,3.53240741 L17,3.53240741 C17.8284271,3.53240741 18.5,4.21019855 18.5,5.0462963 L18.5,15.1388889 C18.5,15.9749866 17.8284271,16.6527778 17,16.6527778 L1,16.6527778 C0.171572875,16.6527778 -0.5,15.9749866 -0.5,15.1388889 L-0.5,5.0462963 C-0.5,4.21019855 0.171572875,3.53240741 1,3.53240741 Z M1,4.54166667 C0.723857625,4.54166667 0.5,4.76759705 0.5,5.0462963 L0.5,15.1388889 C0.5,15.4175881 0.723857625,15.6435185 1,15.6435185 L17,15.6435185 C17.2761424,15.6435185 17.5,15.4175881 17.5,15.1388889 L17.5,5.0462963 C17.5,4.76759705 17.2761424,4.54166667 17,4.54166667 L1,4.54166667 Z" id="Rectangle" fill-rule="nonzero"></path>
                        <path d="M14,7.56944444 L18.5,7.56944444 L18.5,12.6157407 L14,12.6157407 C12.6192881,12.6157407 11.5,11.4860888 11.5,10.0925926 C11.5,8.69909635 12.6192881,7.56944444 14,7.56944444 Z M17.5,8.5787037 L14,8.5787037 C13.1715729,8.5787037 12.5,9.25649485 12.5,10.0925926 C12.5,10.9286903 13.1715729,11.6064815 14,11.6064815 L17.5,11.6064815 L17.5,8.5787037 Z" id="Rectangle-Copy" fill-rule="nonzero"></path>
                        <path d="M12.8143047,-0.468536849 C13.0956265,-0.582107524 13.4115847,-0.419058689 13.4850713,-0.122390663 L14.4850713,3.91464637 C14.5639646,4.23314171 14.3252856,4.54166667 14,4.54166667 L3,4.54166667 C2.44947149,4.54166667 2.30315177,3.7748545 2.81430466,3.56850019 L12.8143047,-0.468536849 Z M12.6538554,0.68324261 L5.5962912,3.53240741 L13.3596118,3.53240741 L12.6538554,0.68324261 Z" id="Triangle" fill-rule="nonzero"></path>
                    </g>
                </g>
                <g id="Icons-/-Nav-/-Match-/-White-100" transform="translate(251.000000, 47.435185)">
                    <rect id="base" fill-rule="nonzero" x="0" y="0" width="24" height="24.2222222"></rect>
                    <path d="M8,18.6712963 C11.5898509,18.6712963 14.5,15.7342013 14.5,12.1111111 C14.5,8.48802088 11.5898509,5.55092593 8,5.55092593 C4.41014913,5.55092593 1.5,8.48802088 1.5,12.1111111 C1.5,15.7342013 4.41014913,18.6712963 8,18.6712963 Z M8,17.662037 C4.96243388,17.662037 2.5,15.1768028 2.5,12.1111111 C2.5,9.04541937 4.96243388,6.56018519 8,6.56018519 C11.0375661,6.56018519 13.5,9.04541937 13.5,12.1111111 C13.5,15.1768028 11.0375661,17.662037 8,17.662037 Z" id="Oval" fill="#FFFFFF" fill-rule="nonzero"></path>
                    <rect id="Rectangle" fill="#FFFFFF" fill-rule="evenodd" x="10" y="11.6064815" width="4" height="1.00925926"></rect>
                    <path d="M16,18.6712963 C19.5898509,18.6712963 22.5,15.7342013 22.5,12.1111111 C22.5,8.48802088 19.5898509,5.55092593 16,5.55092593 C12.4101491,5.55092593 9.5,8.48802088 9.5,12.1111111 C9.5,15.7342013 12.4101491,18.6712963 16,18.6712963 Z M16,17.662037 C12.9624339,17.662037 10.5,15.1768028 10.5,12.1111111 C10.5,9.04541937 12.9624339,6.56018519 16,6.56018519 C19.0375661,6.56018519 21.5,9.04541937 21.5,12.1111111 C21.5,15.1768028 19.0375661,17.662037 16,17.662037 Z" id="Oval-Copy" fill="#FFFFFF" fill-rule="nonzero"></path>
                </g>
                <g id="Icons-/-Nav-/-Nearby-/-White-100" transform="translate(101.000000, 47.435185)">
                    <rect id="base" fill-rule="nonzero" x="0" y="0" width="24" height="24.2222222"></rect>
                    <path d="M15.4908199,21.6969452 C16.6026544,21.5935442 17.615103,21.4412796 18.4724263,21.2489993 C20.3913668,20.8186196 21.5,20.230759 21.5,19.3290782 C21.5,18.4273975 20.3913668,17.8395369 18.4724263,17.4091572 C17.615103,17.2168769 16.6026544,17.0646123 15.4908199,16.9612113 C14.3928597,16.8591006 13.2126441,16.8059301 12,16.8059301 C10.7873559,16.8059301 9.60714031,16.8591006 8.50918008,16.9612113 C7.39734558,17.0646123 6.384897,17.2168769 5.52757374,17.4091572 C3.60863316,17.8395369 2.5,18.4273975 2.5,19.3290782 C2.5,20.230759 3.60863316,20.8186196 5.52757374,21.2489993 C6.384897,21.4412796 7.39734558,21.5935442 8.50918008,21.6969452 C8.78415749,21.7225182 9.02761155,21.518272 9.05294993,21.2407485 C9.07828832,20.963225 8.8759159,20.7175167 8.60093849,20.6919437 C7.52907477,20.59226 6.55791274,20.4462046 5.7445042,20.2637735 C4.96367268,20.0886487 4.34682261,19.8838681 3.93981769,19.6680509 C3.62251403,19.4997984 3.5,19.3655195 3.5,19.3290782 C3.5,19.292637 3.62251403,19.1583581 3.93981769,18.9901056 C4.34682261,18.7742884 4.96367268,18.5695078 5.7445042,18.394383 C6.55791274,18.2119519 7.52907477,18.0658965 8.60093849,17.9662128 C9.66793715,17.8669815 10.8175582,17.8151894 12,17.8151894 C13.1824418,17.8151894 14.3320628,17.8669815 15.3990615,17.9662128 C16.4709252,18.0658965 17.4420873,18.2119519 18.2554958,18.394383 C19.0363273,18.5695078 19.6531774,18.7742884 20.0601823,18.9901056 C20.377486,19.1583581 20.5,19.292637 20.5,19.3290782 C20.5,19.3655195 20.377486,19.4997984 20.0601823,19.6680509 C19.6531774,19.8838681 19.0363273,20.0886487 18.2554958,20.2637735 C17.4420873,20.4462046 16.4709252,20.59226 15.3990615,20.6919437 C15.1240841,20.7175167 14.9217117,20.963225 14.9470501,21.2407485 C14.9723885,21.518272 15.2158425,21.7225182 15.4908199,21.6969452 Z" id="Oval" fill="#FFFFFF" fill-rule="nonzero" transform="translate(12.000000, 19.252519) scale(1, -1) translate(-12.000000, -19.252519) "></path>
                    <path d="M12.3554639,18.521555 C16.4416292,14.3526187 18.5,11.028731 18.5,8.47777778 C18.5,4.63874771 15.5973215,1.51388889 12,1.51388889 C8.40267849,1.51388889 5.5,4.63874771 5.5,8.47777778 C5.5,11.028731 7.55837083,14.3526187 11.6445361,18.521555 L12,18.8842193 L12.3554639,18.521555 Z M6.5,8.47777778 C6.5,5.18210708 8.96990451,2.52314815 12,2.52314815 C15.0300955,2.52314815 17.5,5.18210708 17.5,8.47777778 C17.5,10.615471 15.6759472,13.6267137 12,17.4458422 C8.32405282,13.6267137 6.5,10.615471 6.5,8.47777778 Z" id="Oval-Copy" fill="#FFFFFF" fill-rule="nonzero"></path>
                    <ellipse id="Oval" fill="#FFFFFF" fill-rule="evenodd" cx="12" cy="7.06481481" rx="2" ry="2.01851852"></ellipse>
                </g>
                <g id="Icons-/-Nav-/-Swipe-/-White-100" transform="translate(176.000000, 47.435185)" fill="#FFFFFF" fill-rule="evenodd" stroke-width="1">
                    <g id="Group" transform="translate(1.322075, 3.532407)">
                        <path d="M7.67792474,0 L13.6779247,0 C14.5063519,0 15.1779247,0.677791143 15.1779247,1.51388889 L15.1779247,15.6435185 C15.1779247,16.4796163 14.5063519,17.1574074 13.6779247,17.1574074 L7.67792474,17.1574074 C6.84949761,17.1574074 6.17792474,16.4796163 6.17792474,15.6435185 L6.17792474,1.51388889 C6.17792474,0.677791143 6.84949761,0 7.67792474,0 Z M7.67792474,1.00925926 C7.40178236,1.00925926 7.17792474,1.23518964 7.17792474,1.51388889 L7.17792474,15.6435185 C7.17792474,15.9222178 7.40178236,16.1481481 7.67792474,16.1481481 L13.6779247,16.1481481 C13.9540671,16.1481481 14.1779247,15.9222178 14.1779247,15.6435185 L14.1779247,1.51388889 C14.1779247,1.23518964 13.9540671,1.00925926 13.6779247,1.00925926 L7.67792474,1.00925926 Z" id="Rectangle" fill-rule="nonzero"></path>
                        <path d="M1.5,3.15594651 L3.1640847,3.15594651 C3.41800837,3.15594651 3.6640847,3.45397229 3.6640847,3.862428 L3.6640847,13.5513169 C3.6640847,13.9597726 3.41800837,14.2577984 3.1640847,14.2577984 L1.8281694,14.2577984 C1.55202702,14.2577984 1.3281694,14.4837287 1.3281694,14.762428 C1.3281694,15.0411272 1.55202702,15.2670576 1.8281694,15.2670576 L3.1640847,15.2670576 C4.01473052,15.2670576 4.6640847,14.4806176 4.6640847,13.5513169 L4.6640847,3.862428 C4.6640847,2.93312731 4.01473052,2.14668726 3.1640847,2.14668726 L1.5,2.14668726 C1.22385763,2.14668726 1,2.37261764 1,2.65131689 C1,2.93001613 1.22385763,3.15594651 1.5,3.15594651 Z" id="Rectangle-Copy-2" fill-rule="nonzero" transform="translate(2.832042, 8.706872) scale(-1, 1) rotate(8.000000) translate(-2.832042, -8.706872) "></path>
                        <path d="M17,3.15594651 L18.6640847,3.15594651 C18.9180084,3.15594651 19.1640847,3.45397229 19.1640847,3.862428 L19.1640847,13.5513169 C19.1640847,13.9597726 18.9180084,14.2577984 18.6640847,14.2577984 L17.3281694,14.2577984 C17.052027,14.2577984 16.8281694,14.4837287 16.8281694,14.762428 C16.8281694,15.0411272 17.052027,15.2670576 17.3281694,15.2670576 L18.6640847,15.2670576 C19.5147305,15.2670576 20.1640847,14.4806176 20.1640847,13.5513169 L20.1640847,3.862428 C20.1640847,2.93312731 19.5147305,2.14668726 18.6640847,2.14668726 L17,2.14668726 C16.7238576,2.14668726 16.5,2.37261764 16.5,2.65131689 C16.5,2.93001613 16.7238576,3.15594651 17,3.15594651 Z" id="Rectangle-Copy-3" fill-rule="nonzero" transform="translate(18.332042, 8.706872) rotate(8.000000) translate(-18.332042, -8.706872) "></path>
                    </g>
                </g>
                <g id="Icons/Home/White-100-Copy-1" transform="translate(26.000000, 47.435185)" fill-rule="nonzero">
                    <rect id="base" x="0" y="0" width="24" height="24.2222222"></rect>
                    <path d="M13.7562032,20.1791328 L18.5754234,20.1791328 C18.8125246,20.1791328 19,19.9672985 19,19.7130974 L19,11.9590837 C19,11.4575533 18.8115706,10.9743276 18.4720602,10.6051861 L12.7335631,4.36585631 C12.3596946,3.9593581 11.7270824,3.93290649 11.3205842,4.30677498 C11.2999796,4.32572566 11.2801798,4.34553319 11.2612372,4.36614523 L5.52740851,10.6053118 C5.18822633,10.9743871 5,11.4573721 5,11.9586316 L5,19.7191498 L5,19.7191498 C5,19.9794033 5.19298937,20.1851852 5.4245766,20.1851852 L10.2437968,20.1851852 C10.480898,20.1851852 10.6683734,19.9733509 10.6683734,19.7191498 L10.6683734,15.7127263 C10.6683734,15.6022694 10.7579164,15.5127263 10.8683734,15.5127263 L13.1316266,15.5127263 C13.2420836,15.5127263 13.3316266,15.6022694 13.3316266,15.7127263 L13.3316266,19.7191498 L13.3316266,19.7191498 C13.3316266,19.9672985 13.519102,20.1791328 13.7562032,20.1791328 Z M9.81922017,15.0406385 L9.81922017,19.047062 C9.81922017,19.1575189 9.72967712,19.247062 9.61922017,19.247062 L6.05466719,19.247062 C5.94421024,19.247062 5.85466719,19.1575189 5.85466719,19.047062 L5.85466719,12.4196768 C5.85466719,11.9214094 6.04065806,11.4410853 6.37622172,11.0727547 L11.7070679,5.22136533 C11.8558448,5.05806075 12.1088368,5.04628374 12.2721414,5.19506064 C12.2813128,5.20341618 12.2900905,5.2121939 12.2984461,5.22136533 L17.6292923,11.0727547 C17.9648559,11.4410853 18.1508468,11.9214094 18.1508468,12.4196768 L18.1508468,19.0410096 C18.1508468,19.1514665 18.0613037,19.2410096 17.9508468,19.2410096 L14.3862938,19.2410096 C14.2758369,19.2410096 14.1862938,19.1514665 14.1862938,19.0410096 L14.1862938,15.0345861 L14.1862938,15.0345861 C14.1862938,14.7743326 13.9933045,14.5685507 13.7617172,14.5685507 L10.2437968,14.5685507 C10.0066955,14.5746031 9.81922017,14.7864374 9.81922017,15.0406385 Z" id="Shape" fill="#FAFAFA"></path>
                </g>
                <g id="UI-/-Dividers-/-Divider-327px" transform="translate(24.000000, 31.287037)" fill="#ADB3BF" fill-rule="evenodd" opacity="0.4">
                    <rect id="Rectangle-Copy-4" x="0" y="0" width="327" height="1.00925926"></rect>
                </g>
                <g id="UI-/-Bars-/-Home-Indicator-/-Home-Indicator---On-Dark-Copy-1" opacity="0.6" transform="translate(0.000000, 74.685185)" fill="#FFFFFF" fill-rule="evenodd">
                    <rect id="Rectangle" x="121" y="20.3148148" width="134" height="5" rx="2.5"></rect>
                </g>
            </g>
        </g>
    </g>
</svg>